<svg width="114" height="40" viewBox="0 0 114 40" fill="none" xmlns="http://www.w3.org/2000/svg">
<path d="M58.9552 1.36364C58.998 2.05761 59.5498 2.56168 60.2537 2.56168C60.2785 2.56168 60.3034 2.56168 60.3292 2.55969C60.9834 2.52688 61.5134 1.98603 61.5352 1.32885C61.5472 0.970929 61.4259 0.639851 61.1952 0.394279C60.9656 0.149701 60.6454 0.0105113 60.2944 0.000569109C59.9266 -0.0103673 59.5726 0.136778 59.3151 0.402235C59.0646 0.661726 58.9334 1.01169 58.9552 1.36464V1.36364Z" fill="#212D51"/>
<path d="M50.3204 2.02368H46.1845C45.1932 2.02368 44.3859 2.82999 44.3859 3.82222V15.4128C44.3859 16.4041 45.1922 17.2114 46.1845 17.2114H50.3204C54.7089 17.2114 58.0187 13.9464 58.0187 9.61753C58.0187 5.2887 54.7089 2.02368 50.3204 2.02368ZM55.3502 9.61753C55.3502 12.5206 53.1788 14.7099 50.2995 14.7099H47.0137V4.52514H50.2995C53.1788 4.52514 55.3502 6.71441 55.3502 9.61753Z" fill="#212D51"/>
<path d="M60.2547 5.80493C59.5647 5.80493 59.004 6.36567 59.004 7.05566V15.9609C59.004 16.6509 59.5647 17.2116 60.2547 17.2116C60.9447 17.2116 61.5054 16.6509 61.5054 15.9609V7.05566C61.5054 6.36567 60.9447 5.80493 60.2547 5.80493Z" fill="#212D51"/>
<path d="M67.9151 8.02984C69.15 7.85585 70.3052 8.26448 71.0857 9.14933C71.4904 9.60767 72.1614 9.71306 72.6824 9.40087C73.0075 9.206 73.2253 8.8789 73.2799 8.50309C73.3346 8.12429 73.2173 7.74549 72.9588 7.46314C71.8294 6.2313 70.2347 5.55225 68.4679 5.55225C65.013 5.55225 62.4072 8.11236 62.4072 11.5076C62.4072 14.9029 65.013 17.463 68.4679 17.463C70.2347 17.463 71.8294 16.7839 72.9588 15.5521C73.2183 15.2697 73.3346 14.89 73.2799 14.5121C73.2253 14.1373 73.0075 13.8102 72.6824 13.6144C72.1605 13.3012 71.4913 13.4046 71.0907 13.8609C70.4315 14.6116 69.4999 15.0252 68.4679 15.0252C67.4359 15.0252 66.5272 14.6374 65.879 13.9325C65.2139 13.2097 64.8967 12.2235 64.9862 11.1567C65.1105 9.66732 66.4526 8.23564 67.9151 8.03083V8.02984Z" fill="#212D51"/>
<path d="M80.4592 5.55237C79.0404 5.55237 77.8384 6.0127 76.9416 6.8896V2.64428C76.9416 1.95429 76.3809 1.39355 75.6909 1.39355C75.0009 1.39355 74.4402 1.95429 74.4402 2.64428V15.9599C74.4402 16.6498 75.0009 17.2106 75.6909 17.2106C76.3809 17.2106 76.9416 16.6498 76.9416 15.9599V10.8565C76.9416 9.09378 78.0591 7.99517 79.8587 7.9902H79.8686C80.6004 7.9902 81.2923 8.27852 81.8173 8.80148C82.3562 9.33935 82.6534 10.0542 82.6534 10.8158V15.9599C82.6534 16.6498 83.2142 17.2106 83.9042 17.2106C84.5941 17.2106 85.1549 16.6498 85.1549 15.9599V10.2471C85.1549 7.43841 83.2679 5.55237 80.4602 5.55237H80.4592Z" fill="#212D51"/>
<path d="M91.9902 5.55225C88.5352 5.55225 85.9294 8.11236 85.9294 11.5076C85.9294 14.9029 88.5352 17.463 91.9902 17.463C95.4451 17.463 98.029 14.9029 98.029 11.5076C98.029 8.11236 95.4331 5.55225 91.9902 5.55225ZM91.9902 15.0252C91.0059 15.0252 90.1091 14.6613 89.4658 14.0001C88.8126 13.329 88.4686 12.4044 88.4955 11.3963C88.5452 9.54304 90.0285 8.04774 91.8708 7.99306C91.9106 7.99206 91.9494 7.99107 91.9892 7.99107C92.9267 7.99107 93.7917 8.3301 94.426 8.94552C95.0971 9.59673 95.4659 10.5064 95.4659 11.5086C95.4659 13.514 93.9716 15.0262 91.9911 15.0262L91.9902 15.0252Z" fill="#212D51"/>
<path d="M113.461 6.37959C113.228 6.01968 112.832 5.80493 112.402 5.80493C111.893 5.80493 111.437 6.10817 111.239 6.57645L108.183 13.8084L105.127 6.57645C104.929 6.10817 104.473 5.80493 103.964 5.80493H103.891C103.463 5.80493 103.068 6.01869 102.834 6.37661C102.6 6.73453 102.563 7.18192 102.735 7.57464L106.771 16.793L106.064 18.2456C105.813 18.7636 105.469 19.0161 105.011 19.0161C104.796 19.0161 104.571 18.9604 104.361 18.856C103.804 18.5787 103.137 18.7845 102.842 19.3253C102.552 19.8572 102.728 20.5224 103.241 20.8405C103.87 21.2302 104.616 21.4539 105.285 21.4539C106.615 21.4539 107.762 20.6377 108.354 19.2736L113.557 7.5816C113.732 7.18988 113.696 6.74049 113.462 6.38059L113.461 6.37959Z" fill="#212D51"/>
<path d="M50.2369 28.5028C48.6462 28.5028 47.3447 29.1093 46.4718 30.2556C46.4698 30.2576 46.4678 30.2616 46.4609 30.2596C46.4559 30.2576 46.4559 30.2546 46.4559 30.2516V25.3313C46.4559 24.7874 46.0135 24.344 45.4686 24.344C44.9238 24.344 44.4814 24.7864 44.4814 25.3313V38.6468C44.4814 39.1907 44.9238 39.6341 45.4686 39.6341C46.0135 39.6341 46.4559 39.1917 46.4559 38.6468V33.5435C46.4559 31.6475 47.7037 30.4197 49.6354 30.4137C49.6384 30.4137 49.6414 30.4137 49.6444 30.4137C50.4477 30.4137 51.2063 30.7289 51.7809 31.3015C52.3695 31.8891 52.6946 32.6706 52.6946 33.5027V38.6468C52.6946 39.1907 53.1371 39.6341 53.6819 39.6341C54.2267 39.6341 54.6692 39.1917 54.6692 38.6468V32.9341C54.6692 30.2835 52.8885 28.5028 50.2379 28.5028H50.2369Z" fill="#212D51"/>
<path d="M61.6833 28.5029C58.4263 28.5029 55.9706 30.9318 55.9706 34.1531C55.9706 37.3744 58.5257 39.8868 61.914 39.8868C63.7135 39.8868 65.3341 39.2226 66.4775 38.0166C66.6077 37.8794 66.6753 37.6985 66.6654 37.5076C66.6564 37.3167 66.568 37.1358 66.4228 37.0105L66.1146 36.744C65.8362 36.5034 65.4176 36.5193 65.1611 36.7818C64.3658 37.5941 63.2045 38.0594 61.9757 38.0594C60.0091 38.0594 58.5018 36.8932 58.1091 35.0767H66.4695C66.9557 35.0767 67.3524 34.684 67.3524 34.2018V34.1939C67.3524 30.9487 64.9146 28.502 61.6814 28.502L61.6833 28.5029ZM65.2168 33.2374C65.2009 33.2583 65.176 33.2702 65.1492 33.2702H58.1956C58.1698 33.2702 58.1449 33.2583 58.128 33.2374C58.1111 33.2165 58.1052 33.1897 58.1121 33.1638C58.5138 31.4687 59.9405 30.3293 61.6625 30.3293C63.3845 30.3293 64.8311 31.4419 65.2337 33.1638C65.2397 33.1897 65.2337 33.2165 65.2168 33.2374Z" fill="#212D51"/>
<path d="M73.2551 30.4556C74.5784 30.2686 75.8202 30.7091 76.6593 31.6625C76.9794 32.0254 77.5103 32.1099 77.922 31.8624C78.1795 31.7083 78.3515 31.4498 78.3942 31.1535C78.438 30.8542 78.3445 30.553 78.1397 30.3293C77.061 29.1521 75.5348 28.5039 73.8437 28.5039C70.5389 28.5039 68.0474 30.9507 68.0474 34.1958C68.0474 37.4409 70.5399 39.8877 73.8437 39.8877C75.5348 39.8877 77.061 39.2395 78.1397 38.0623C78.3455 37.8376 78.438 37.5374 78.3942 37.2381C78.3515 36.9418 78.1795 36.6833 77.922 36.5292C77.5094 36.2817 76.9804 36.3632 76.6643 36.7231C75.9544 37.5314 74.9532 37.9768 73.8437 37.9768C72.7341 37.9768 71.7598 37.5583 71.0608 36.7987C70.345 36.0212 70.004 34.9633 70.0994 33.822C70.2337 32.2193 71.6783 30.6783 73.2551 30.4565V30.4556Z" fill="#212D51"/>
<path d="M85.8369 28.5028C84.2343 28.5028 82.9288 29.1153 82.0559 30.2765V25.3313C82.0559 24.7874 81.6135 24.344 81.0687 24.344C80.5238 24.344 80.0814 24.7864 80.0814 25.3313V38.6468C80.0814 39.1907 80.5238 39.6341 81.0687 39.6341C81.6135 39.6341 82.0559 39.1917 82.0559 38.6468V33.5435C82.0559 31.6475 83.3037 30.4197 85.2354 30.4137C85.2384 30.4137 85.2414 30.4137 85.2444 30.4137C86.0477 30.4137 86.8063 30.7289 87.381 31.3015C87.9695 31.8891 88.2947 32.6706 88.2947 33.5027V38.6468C88.2947 39.1907 88.7371 39.6341 89.2819 39.6341C89.8267 39.6341 90.2692 39.1917 90.2692 38.6468V32.9341C90.2692 30.2835 88.4885 28.5028 85.8379 28.5028H85.8369Z" fill="#212D51"/>
<path d="M91.7207 33.8907C91.7207 30.4775 94.3484 27.8945 97.8292 27.8945C101.31 27.8945 103.915 30.4775 103.915 33.8907C103.915 37.3038 101.287 39.8868 97.8292 39.8868C94.3713 39.8868 91.7207 37.3038 91.7207 33.8907ZM101.915 33.8907C101.915 31.5324 100.164 29.7587 97.8282 29.7587C95.4928 29.7587 93.7181 31.5324 93.7181 33.8907C93.7181 36.249 95.4699 38.0226 97.8282 38.0226C100.187 38.0226 101.915 36.249 101.915 33.8907Z" fill="#212D51"/>
<path d="M31.1827 34.874C30.7323 34.6911 30.2859 34.4813 29.8465 34.2467C34.0391 30.8773 36.4829 25.8823 36.4829 20.4936C36.4829 17.679 35.8118 15.0145 34.6167 12.6443C34.5292 12.4703 34.2916 12.4444 34.1703 12.5966L32.7913 14.3205C32.7297 14.3971 32.7168 14.5015 32.7556 14.592C33.537 16.4094 33.9705 18.4028 33.9705 20.4926C33.9705 25.765 31.2324 30.6029 26.6461 33.4354C26.3339 33.6283 26.1509 33.9385 26.143 34.2894C26.134 34.6334 26.2981 34.9526 26.5894 35.1643C27.4812 35.8106 28.4108 36.3634 29.3663 36.8167C29.6039 36.9291 29.5452 37.283 29.2837 37.3099C28.1225 37.4282 26.9493 37.4868 25.7741 37.4868C21.1132 37.4868 16.5538 36.5523 12.5888 34.7845C9.63299 33.67 7.12259 31.7442 5.3141 29.208C3.48176 26.6389 2.51339 23.6254 2.51339 20.4917C2.51339 12.0477 9.56837 5.17769 18.2419 5.17769C21.7555 5.17769 25.0026 6.30514 27.6244 8.20807C27.7397 8.29258 27.9008 8.2717 27.9903 8.16035L29.2271 6.61235C29.3215 6.49503 29.2996 6.32204 29.1784 6.23256C26.1291 3.99358 22.3421 2.66431 18.2419 2.66431C8.18342 2.66431 0 10.6608 0 20.4917C0 24.1514 1.13043 27.6699 3.268 30.6675C5.35188 33.5885 8.24208 35.8156 11.6314 37.109C15.8996 39.001 20.7881 40.0002 25.7731 40.0002C27.3748 40.0002 28.9855 39.8968 30.5583 39.692C31.6897 39.5439 32.5806 38.654 32.7267 37.5216C32.8729 36.3902 32.2386 35.3015 31.1807 34.872L31.1827 34.874Z" fill="url(#paint0_linear_381_1966)"/>
<path d="M36.6648 6.96116L33.5678 10.8356L33.2089 11.284L31.9055 12.9145L31.126 13.8879L20.7663 26.8455C20.3706 27.3407 19.783 27.6439 19.1506 27.6787C19.1089 27.6807 19.0671 27.6827 19.0264 27.6827C18.4368 27.6827 17.8701 27.449 17.4525 27.0305L10.0138 19.5917C9.14383 18.7218 9.14383 17.312 10.0138 16.442C10.8827 15.5731 12.2935 15.5731 13.1625 16.442L18.8414 22.121L28.546 9.98358L29.0382 9.36717L30.4549 7.59448L30.61 7.4016L33.186 4.18033C33.9546 3.21991 35.3554 3.06481 36.3168 3.83135C37.2773 4.59889 37.4324 6.00174 36.6648 6.96116Z" fill="#7BCD3C"/>
<defs>
<linearGradient id="paint0_linear_381_1966" x1="0" y1="21.3323" x2="36.4829" y2="21.3323" gradientUnits="userSpaceOnUse">
<stop stop-color="#0042E9"/>
<stop offset="0.31" stop-color="#0055EE"/>
<stop offset="0.72" stop-color="#0069F3"/>
<stop offset="1" stop-color="#0071F5"/>
</linearGradient>
</defs>
</svg>
